<svg id="レイヤー_1" xmlns="http://www.w3.org/2000/svg" viewBox="0 0 26.2 26.2"><style>.st0{enable-background:new}.st1{fill:#c28e44}</style><title></title><g id="Symbols"><g id="Footer" transform="translate(-648 -303)"><g transform="translate(648 301)" id="Group-2"><g class="st0" id="_xF09A_"><path class="st1" d="M26.2 26.8c0 .4-.1.7-.4 1s-.6.4-1.1.4H18V18.1h3.4l.5-3.9H18v-2.5c0-.7.1-1.1.4-1.4.3-.4.8-.5 1.6-.5h2.1V6.1c-.8-.1-1.8-.1-3-.1-1.5 0-2.8.4-3.7 1.3S14 9.5 14 11.2v2.9h-3.4V18H14v10.2H1.5c-.4 0-.8-.1-1.1-.4s-.4-.6-.4-1V3.5c0-.5.1-.8.4-1.1S1 2 1.5 2h23.3c.4 0 .7.1 1 .4s.4.6.4 1.1v23.3z"/></g></g></g></g></svg>