<svg id="レイヤー_1" xmlns="http://www.w3.org/2000/svg" viewBox="0 0 28 25"><style>.st0{enable-background:new}.st1{fill:#fff9f0}</style><title>heart-o - anticon</title><g id="Symbols"><g id="Gnav" transform="translate(-109 -33)"><g id="Nav1"><g class="st0" id="Group-5"><path class="st1" d="M28 10.6c0 1.3-.3 2.5-.8 3.6s-1.3 2.1-2.2 2.9c-.7.6-2.5 2.3-5.4 4.9-2.7 2.5-4.3 4-4.9 4.5-.2.2-.4.2-.7.2-.3 0-.5-.1-.7-.2-.9-.8-3.2-2.9-7-6.4-1.8-1.6-2.8-2.6-3.1-2.8l-.2-.2c-.9-.8-1.6-1.7-2.2-2.9-.5-1.1-.8-2.3-.8-3.6 0-1.1.2-2.3.7-3.3.4-1 1-1.9 1.8-2.7C4 3 5.8 2.3 8 2.3c1.2 0 2.3.3 3.3.8s2 1.2 2.7 2.2c.8-.9 1.7-1.6 2.7-2.2 1-.5 2.2-.8 3.3-.8 2.1 0 4 .8 5.5 2.3.8.8 1.4 1.7 1.8 2.7.5 1 .7 2.2.7 3.3zM14 7.4c-.6 0-1.1-.3-1.5-.8-.5-.7-1.2-1.3-2-1.7-.8-.3-1.7-.5-2.5-.5-1.5 0-2.9.6-4 1.7-.6.6-1 1.3-1.3 2-.3.8-.5 1.7-.5 2.5 0 .9.2 1.8.6 2.7s.9 1.6 1.6 2.1c0 .1.1.1.2.2l.1.1c.3.3 1.2 1.1 2.6 2.3l1.3 1.2c2.6 2.4 4.5 4.1 5.5 5 .8-.8 2.2-2 4.2-3.8 2.5-2.3 4.3-3.9 5.4-4.9l.1-.1c.7-.6 1.2-1.3 1.6-2.1.4-.9.6-1.8.6-2.8 0-.9-.2-1.7-.5-2.5s-.8-1.4-1.3-2c-1.1-1.1-2.5-1.7-4-1.7-.9 0-1.7.2-2.5.6-.8.4-1.5 1-2 1.7-.6.5-1.1.8-1.7.8z" transform="translate(109 31)"/></g></g></g></g></svg>