<svg id="レイヤー_1" xmlns="http://www.w3.org/2000/svg" viewBox="0 0 28 25"><style>.st0{enable-background:new}.st1{fill:#d7d7d7}</style><title>heart - anticon</title><g id="Symbols"><g id="item" transform="translate(-188 -16)"><g class="st0" id="item-copy"><path class="st1" d="M216 24.6c0 1.3-.3 2.5-.8 3.6s-1.3 2.1-2.2 2.9c-.7.6-2.5 2.3-5.4 4.9-2.7 2.5-4.3 4-4.9 4.5-.2.2-.4.2-.7.2-.3 0-.5-.1-.7-.2-.9-.8-3.2-2.9-7-6.4-1.8-1.6-2.8-2.6-3.1-2.8-.1-.1-.2-.1-.2-.2-.9-.8-1.6-1.7-2.2-2.9-.5-1.1-.8-2.3-.8-3.6 0-1.1.2-2.3.7-3.3.4-1 1-1.9 1.8-2.7 1.5-1.6 3.4-2.4 5.5-2.4 1.2 0 2.3.3 3.3.8s2 1.2 2.7 2.2c.8-.9 1.7-1.6 2.7-2.2 1-.5 2.2-.8 3.3-.8 2.1 0 4 .8 5.5 2.3.8.8 1.4 1.7 1.8 2.7.5 1.1.7 2.3.7 3.4z"/></g></g></g></svg>