<svg id="レイヤー_1" xmlns="http://www.w3.org/2000/svg" viewBox="0 0 26.2 26.2"><style>.st0{enable-background:new}.st1{fill:#c28e44}</style><title></title><g id="Symbols"><g id="Footer" transform="translate(-766 -302)"><g transform="translate(648 301)" id="Group-2"><g class="st0" id="_xF16D_"><path class="st1" d="M144.2 8.7c0 1.1.1 2.9.1 5.4s0 4.4-.1 5.5-.2 2.1-.5 2.9c-.4 1-.9 1.8-1.6 2.5s-1.6 1.3-2.5 1.6c-.8.3-1.8.4-2.9.5s-2.9.1-5.5.1-4.4 0-5.5-.1-2.1-.2-2.9-.6c-1-.3-1.8-.8-2.5-1.6s-1.3-1.6-1.6-2.5c-.3-.8-.4-1.8-.5-2.9s-.1-2.9-.1-5.5 0-4.4.1-5.5.2-2.1.5-2.9c.4-1 .9-1.8 1.6-2.5s1.6-1.3 2.5-1.6c.8-.3 1.8-.4 2.9-.5s2.9-.1 5.5-.1 4.4 0 5.5.1 2.1.2 2.9.5c1 .4 1.8.9 2.5 1.6s1.3 1.6 1.6 2.5c.2 1 .4 1.9.5 3.1zm-2.8 13.2c.2-.7.4-1.7.5-3.2 0-.9.1-2.1.1-3.6v-1.9c0-1.6 0-2.8-.1-3.6-.1-1.5-.2-2.5-.5-3.2-.5-1.2-1.3-2.1-2.5-2.5-.6-.2-1.7-.4-3.2-.5-.9 0-2.1-.1-3.6-.1h-1.9c-1.6 0-2.8 0-3.6.1-1.4.1-2.5.2-3.2.5-1.2.5-2.1 1.3-2.5 2.5-.2.6-.4 1.7-.5 3.2 0 .9-.1 2.1-.1 3.6v1.9c0 1.6 0 2.8.1 3.6.1 1.4.2 2.5.5 3.2.5 1.2 1.3 2.1 2.5 2.5.7.2 1.7.4 3.2.5.9 0 2.1.1 3.6.1h1.9c1.6 0 2.8 0 3.6-.1 1.5-.1 2.5-.2 3.2-.5 1.2-.5 2-1.4 2.5-2.5zM131.1 7.4c1.2 0 2.3.3 3.4.9s1.9 1.4 2.5 2.5.9 2.2.9 3.4-.3 2.3-.9 3.4-1.4 1.9-2.5 2.5-2.2.9-3.4.9-2.3-.3-3.4-.9-1.9-1.4-2.5-2.5-.9-2.2-.9-3.4.3-2.3.9-3.4 1.4-1.9 2.5-2.5 2.2-.9 3.4-.9zm0 11.1c1.2 0 2.2-.4 3.1-1.3s1.3-1.9 1.3-3.1-.4-2.2-1.3-3.1-1.9-1.3-3.1-1.3-2.2.4-3.1 1.3-1.3 1.9-1.3 3.1.4 2.2 1.3 3.1 1.9 1.3 3.1 1.3zm8.6-11.4c0-.4-.2-.8-.5-1.1s-.7-.5-1.1-.5-.7.2-1.1.5-.5.7-.5 1.1.2.8.5 1.1.7.5 1.1.5.8-.2 1.1-.5.5-.7.5-1.1z"/></g></g></g></g></svg>