<svg id="レイヤー_1" xmlns="http://www.w3.org/2000/svg" viewBox="0 0 148.5 41.9"><style>.st0{enable-background:new}.st1{fill:#fff9f0}</style><title>Petit Caprice</title><g id="Symbols"><g id="Gnav" transform="translate(-580 -30)"><g id="Nav1"><g class="st0" id="Group"><path class="st1" d="M15.2 15.7C7.8 24.8-.7 16 4.7 6.8 8.6.2 18.2-6 26.8-6c4 0 8 1.2 8 4.8C34.8 3.7 28.2 9 21.6 9c-.6.1-1.1 0-1.6 0-1.5 2.3-3 4.6-4.8 6.7zM28.1-2.9C25.9-1.1 23.5 3.3 20.6 8h1.2c4.7-.1 11.4-5.2 11.5-8.7 0-2-.7-4.1-5.9-4.1-8 0-17.6 5.5-21.2 12.1-5.4 9.9 3.2 14.5 8.2 7.3 1.4-2 2.8-4 4-6-2.6-.8-2.7-2.6-2.2-2.4.4.2 1.3 1 2.9 1.5 1.5-2.3 2.7-4.4 3.8-6 3.1-4.7 4.6-5.2 5-5.3.5-.2.3.6.2.7zm7.5 17.1c.5-.4.4.9.2 1.1-.2.2-3.6 3.6-6.4 4-2.2.3-3.7-.5-4.3-2.1-.7-1.8.3-4.2 2.3-6.1 4.9-4.4 8.2-2.6 4.6 1.6-.8.9-4.4 3.7-5.7 4.3.3 1.4 1.8 1.9 5.3.2 1.3-.7 2.6-1.8 4-3zm-5.2-1.7c3.1-3 1.6-3.7-1.5-1-1.1 1.1-2.1 2.6-2.4 3.8.9-.4 2.8-1.6 3.9-2.8z" transform="translate(577 36)"/><path class="st1" d="M45.8 5.4c-3 3.3-6.9 7-8.9 8.8-.1.6-.2 1.2-.2 1.7 0 1.4.5 1.8 1.3 1.8 1 0 2.4-.5 5.7-3.4.5-.4.4.7.2.9-.2.2-3.8 3.9-5.9 3.8-4.7-.1-2.4-7.3-.1-10.8.5-.8 1.2-1.7 2-2.7-2.4.2-4.1.3-4.1.3-.8.1 0-1.1.4-1.1.2 0 2.1-.1 4.6-.3C47.2-3.1 52.3-2.4 47 4c3.5-.2 6.5-.3 6.9-.2.3.1.3 1.2 0 1.2-1.7 0-4.7 0-7.8.2l-.3.2zm-1.4-.1c-1 0-1.9.1-2.8.2-1.2 1.5-3.1 4.1-4.1 6.9 3.2-3.1 5.4-5.4 6.9-7.1zm1.1-1.2c2.3-2.7 2.4-3.5 2-3.5-.6 0-2.7 1.5-4.8 3.7l2.8-.2z" transform="translate(577 36)"/><path class="st1" d="M45.2 17.7c1.1.1 2.6-.7 5.9-3.6.5-.4.4.9.2 1.1-.2.2-4.8 5-7.5 3.1-1.4-1-.8-3.3 1-5.9 1.5-2.2 2.3-3.3 2.6-3.5.4-.3 1.1.6.7 1.2-.3.5-2.8 3.7-3.4 5.2-.6 1.5-.4 2.3.5 2.4zm5.1-12.1c-.7-.4-1.5 0-1.9.7-.3.6-.3 1.5.4 1.7 1.4.5 2.7-1.9 1.5-2.4z" transform="translate(577 36)"/><path class="st1" d="M61.4 5.4c-3 3.3-6.9 7-8.9 8.8-.1.6-.2 1.2-.2 1.7 0 1.4.5 1.8 1.3 1.8 1 0 2.4-.5 5.7-3.4.5-.4.4.7.2.9-.2.2-3.8 3.9-5.9 3.8-4.7-.1-2.4-7.3-.1-10.8.5-.8 1.2-1.7 2-2.7-2.4.2-4.1.3-4.1.3-.8.1 0-1.1.4-1.1.2 0 2.1-.1 4.6-.3 6.4-7.5 11.4-6.8 6.2-.4 3.5-.2 6.5-.3 6.9-.2.3.1.3 1.2 0 1.2-1.7 0-4.7 0-7.8.2l-.3.2zM60 5.3c-1 0-1.9.1-2.8.2-1.2 1.5-3.1 4.1-4.1 6.9C56.2 9.3 58.4 7 60 5.3zm1-1.2c2.3-2.7 2.4-3.5 2-3.5-.6 0-2.7 1.5-4.8 3.7l2.8-.2zm21.4-2c.8-.9 2-1.5 2.7-1.6.5-.1.6 1.2 0 1.4-2.5 1-2.9 3.3-1.5 3.3 1.6 0 4.7-2.5 6.1-5 1.4-2.5.9-5-2.3-5-7.8 0-17.7 10.7-17.8 16.8-.1 2.3.5 5.7 4.2 6.5 3.2.6 7.1-1.6 9.1-3.6.7-.7 1.8-.4 1.1.3-6.6 7.3-16 5.7-16-2.8 0-5.1 3.8-10.4 8.5-14C83.6-6.9 92-7.7 92-2.3c0 2-1.8 4.5-4 6.4-6.2 5.4-8.3.8-5.6-2zm13.4 17.2c-2.2.4-3.6-1.2-2.9-3.4-3.3 3.4-4.5 3.7-5.9 3.5-1.6-.3-2.7-2.8-.4-6.2 2.4-3.3 5.6-4.4 6.8-4.4 1.1 0 2 .7 2.2 1.8.4-.5.7-.8.8-.9.4-.2 1.3.6 1.3.8 0 .1-1.1 1.3-2.2 2.4-2.8 4.3-1.5 5.9 2.6 3.9 1.2-.6 2.5-1.5 3.9-2.7.5-.4.4.9.2 1.1-.3.3-3.6 3.6-6.4 4.1zm-1.6-6.9s.7-2.2-1.1-2.2c-4 0-8.1 7-5.9 7.6 2.2.6 6.2-4.5 6.5-4.8l.5-.6z" transform="translate(577 36)"/><path class="st1" d="M104.7 7.2c.2-.3 1.7-.4 1.5.2-.4 1.3-.9 2.6-1.3 3.8 1.3-1.2 2.5-1.8 3.5-1.8 2.3 0 2.9 3.4 0 7.2-3 3.9-5 3.3-6 2.4-2.3 8.8-5.6 17.6-8.1 17-5.4-1.3 5.5-20 8.5-22.6.9-3.8 1.7-6 1.9-6.2zM94.4 32.1c-1 8 3.6-3.7 4-4.9 1.1-3.2 2.3-6.9 3.1-9.5 0-.2.1-.4.2-.6-2.1 3-4 6.3-5.1 8.5-1.1 2.5-2 4.8-2.2 6.5zm8.4-14.9c.7 2.2 3.2.7 4.8-1.7 1.9-2.9 1.8-4.7.5-4.7-1.1 0-2.7 1.5-4.4 3.7l-.9 2.7zm14.3-4.8c.9-1.1 1.3-1.8 1.1-2-.3-.2-1.4.4-2.4.4-1.1 1.5-2.7 3.2-4.2 4.7-.3.3-.6-.9-.4-1 1.4-1.1 2.7-2.7 3.6-3.9-.6-.3-1-.9-.7-1.9.7-2.8 4-2.5 3.3-.5-.2.5-.5 1.1-.9 1.6.5-.1 1.1-.4 1.5-.5 1.9-.7 3.1.2 1.3 2.3-1 1.2-4.3 5.7-1.9 6 .9.1 2.4-.7 5.7-3.6.5-.4.4.9.2 1.1-.2.2-3.9 3.9-6 3.8-2.6.1-3.2-2.9-.2-6.5zm-1-3.7c.4-1-.9-.7-1.1.4-.1.5 0 .7.4.9.3-.6.6-1 .7-1.3z" transform="translate(577 36)"/><path class="st1" d="M124.5 17.7c1.1.1 2.6-.7 5.9-3.6.5-.4.4.9.2 1.1-.2.2-4.8 5-7.5 3.1-1.4-1-.8-3.3 1-5.9 1.5-2.2 2.3-3.3 2.6-3.5.4-.3 1.1.6.7 1.2-.3.5-2.8 3.7-3.4 5.2-.6 1.5-.5 2.3.5 2.4zm5.1-12.1c-.7-.4-1.5 0-1.9.7-.3.6-.3 1.5.4 1.7 1.3.5 2.7-1.9 1.5-2.4z" transform="translate(577 36)"/><path class="st1" d="M133.1 10.3c3.6-2.9 7-2.2 6.6-.1-.3 1.1-1.5 2.1-1.8 2.3-.2.2-1.1-.6-.4-1.1 1.1-1 .7-2.2-.5-1.9-.9.2-3.3 1.8-4.5 3.6-3.2 4.7 1.7 7.3 8.7 1.1.5-.4.4.9.3 1.1-.2.2-3.3 3.4-6 3.7-2.3.4-4.2-.1-5.1-1.6-.7-1.2-1.3-3.9 2.7-7.1z" transform="translate(577 36)"/><path class="st1" d="M151.1 14.2c.5-.4.4.9.2 1.1-.2.2-3.6 3.6-6.4 4-2.2.3-3.7-.5-4.3-2.1-.7-1.8.3-4.2 2.3-6.1 4.9-4.4 8.2-2.6 4.6 1.6-.8.9-4.4 3.7-5.7 4.3.3 1.4 1.8 1.9 5.3.2 1.3-.7 2.6-1.8 4-3zm-5.2-1.7c3.1-3 1.6-3.7-1.5-1-1.1 1.1-2.1 2.6-2.4 3.8.9-.4 2.8-1.6 3.9-2.8z" transform="translate(577 36)"/></g></g></g></g></svg>