<svg id="レイヤー_1" xmlns="http://www.w3.org/2000/svg" viewBox="0 0 14 14"><style>.st0{enable-background:new}.st1{fill:#d7d7d7}</style><title></title><g id="Symbols"><g id="Gnav" transform="translate(-1375 -39)"><g class="st0" id="Nav1"><path class="st1" d="M1389 52.4c0 .2-.1.3-.2.4-.1.1-.2.2-.4.2s-.3-.1-.4-.2l-3.2-3.2c-1.1.9-2.4 1.4-3.8 1.4-1.7 0-3.1-.6-4.2-1.8s-1.8-2.6-1.8-4.2.6-3.1 1.8-4.2 2.6-1.8 4.2-1.8 3.1.6 4.2 1.8 1.8 2.6 1.8 4.2c0 1.4-.5 2.7-1.4 3.8l3.2 3.2c.1.1.2.3.2.4zm-4.6-4c.5-.5.8-1 1.1-1.6.2-.6.4-1.2.4-1.9s-.1-1.3-.4-1.9c-.2-.6-.6-1.1-1.1-1.6s-1-.8-1.6-1.1c-.6-.2-1.2-.4-1.9-.4s-1.3.1-1.9.4c-.6.2-1.1.6-1.6 1.1s-.8 1-1 1.6c-.3.6-.4 1.2-.4 1.9s.1 1.3.4 1.9c.2.6.6 1.1 1 1.6s1 .8 1.6 1.1c.6.2 1.2.4 1.9.4s1.3-.1 1.9-.4c.7-.3 1.2-.6 1.6-1.1z"/></g></g></g></svg>