<svg id="レイヤー_1" xmlns="http://www.w3.org/2000/svg" viewBox="0 0 28 25"><style>.st0{enable-background:new}.st1{fill:#fff9f0}</style><title>shopping-cart - anticon</title><g id="Symbols"><g id="Gnav" transform="translate(-177 -34)"><g id="Nav1"><g class="st0" id="Group-4"><path class="st1" d="M27.8 20.6c.2.2.3.4.3.7s-.1.5-.3.7-.4.3-.7.3h-3.3c.4.5.6 1.2.6 1.8 0 .8-.3 1.6-.9 2.1s-1.3.9-2.1.9-1.5-.3-2.1-.9-.9-1.3-.9-2.1c0-.7.2-1.3.6-1.8h-4.7c.4.5.6 1.2.6 1.8 0 .8-.3 1.6-.9 2.1s-1.3.9-2.1.9-1.5-.3-2.1-.9-1-1.2-1-2c0-.7.2-1.3.6-1.8H7.6c-.4 0-.7-.2-.9-.6-.2-.4-.2-.7.1-1.1L9 17.1 7.2 8.9l-.7-3.3H2.8c-.3 0-.5-.1-.7-.3s-.3-.4-.3-.7.1-.5.3-.7.4-.3.7-.3h4.5c.2 0 .4.1.6.2.2.2.3.4.4.6l.1.7 18.6.1c.3 0 .6.1.8.4s.3.5.2.8l-2 11.3c0 .2-.2.4-.3.6-.2.2-.4.2-.7.2H10.4l-.9 1.8H27c.3 0 .6.1.8.3zm-16.9-4.1h13.2l1.7-9.3H9l1.9 9.3zm1.8 7.7c0-.3-.1-.5-.3-.7s-.4-.3-.6-.3c-.3 0-.5.1-.7.3-.2.2-.3.4-.3.7s.1.5.3.7c.2.2.4.3.7.3.3 0 .5-.1.6-.3s.3-.5.3-.7zm9.5 0c0-.3-.1-.5-.3-.7s-.4-.3-.6-.3-.5.1-.7.3c-.2.2-.3.4-.3.7s.1.5.3.7c.2.2.4.3.7.3s.5-.1.6-.3.3-.5.3-.7z" transform="translate(176 31)"/></g></g></g></g></svg>