<svg id="レイヤー_1" xmlns="http://www.w3.org/2000/svg" viewBox="0 0 30 24.4"><style>.st0{enable-background:new}.st1{fill:#c28e44}</style><title></title><g id="Symbols"><g id="Footer" transform="translate(-708 -304)"><g transform="translate(648 301)" id="Group-2"><g class="st0" id="_xF099_"><path class="st1" d="M87 9.9c0 2.8-.7 5.5-2.1 8.1-1.4 2.8-3.4 5-5.9 6.6-2.8 1.8-6 2.8-9.6 2.8-3.4 0-6.6-.9-9.4-2.8.4 0 .9.1 1.5.1 2.9 0 5.4-.9 7.7-2.6-1.4 0-2.6-.4-3.6-1.2s-1.7-1.8-2.1-3c.4 0 .8.1 1.1.1.5 0 1.1-.1 1.6-.2-1.4-.3-2.6-1-3.5-2.2s-1.4-2.4-1.4-3.9v-.1c.9.5 1.8.8 2.8.8-.8-.6-1.5-1.3-2-2.2s-.8-1.9-.8-3 .3-2.1.9-3.1c1.5 1.9 3.4 3.4 5.6 4.6s4.6 1.8 7.1 1.9c-.1-.5-.1-.9-.1-1.4 0-1.1.3-2.1.8-3.1s1.3-1.7 2.2-2.3 2-.8 3-.8c.9 0 1.7.2 2.5.5s1.4.8 2 1.4c1.4-.3 2.7-.8 3.9-1.5-.5 1.4-1.4 2.6-2.7 3.4 1.2-.2 2.3-.5 3.5-1-.9 1.2-1.9 2.3-3.1 3.2 0 .2.1.5.1.9z"/></g></g></g></g></svg>