<svg id="レイヤー_1" xmlns="http://www.w3.org/2000/svg" viewBox="0 0 20 25"><style>.st0{enable-background:new}.st1{fill:#fff9f0}</style><title>user - anticon</title><g id="Symbols"><g id="Gnav" transform="translate(-43 -33)"><g class="st0" id="Nav1"><path class="st1" d="M62.1 56.7c0 .3-.1.5-.3.7s-.4.3-.7.3-.5-.1-.7-.3-.3-.4-.3-.7c0-2-.7-3.7-2.1-5.1s-3-2-5-2-3.7.7-5.1 2.1c-1.4 1.4-2.1 3.1-2.1 5.1 0 .3-.1.5-.3.7s-.4.3-.7.3-.5-.1-.7-.3-.3-.4-.3-.7c0-1.2.2-2.4.7-3.6.5-1.1 1.1-2.1 1.9-2.9.8-.8 1.8-1.5 2.9-1.9.3-.2.7-.3 1.1-.4-1.1-.4-2.1-1-2.9-1.8-1.5-1.5-2.2-3.3-2.2-5.3s.7-3.9 2.2-5.3c1.5-1.5 3.2-2.2 5.3-2.2s3.9.7 5.3 2.2c1.5 1.5 2.2 3.2 2.2 5.3s-.7 3.9-2.2 5.3c-.8.8-1.8 1.4-2.9 1.8.4.1.8.2 1.1.4 1.1.5 2.1 1.1 2.9 1.9.8.8 1.5 1.8 1.9 2.9.8 1.1 1 2.3 1 3.5zM53 46.4c1.5 0 2.8-.5 3.9-1.6s1.6-2.4 1.6-3.9-.5-2.9-1.6-4-2.4-1.6-3.9-1.6-2.8.5-3.9 1.6-1.6 2.4-1.6 3.9.5 2.8 1.6 3.9 2.4 1.7 3.9 1.7z"/></g></g></g></svg>