<?xml version="1.0" encoding="utf-8"?>
<!-- Generator: Adobe Illustrator 22.1.0, SVG Export Plug-In . SVG Version: 6.00 Build 0)  -->
<svg version="1.1" id="レイヤー_1" xmlns="http://www.w3.org/2000/svg" xmlns:xlink="http://www.w3.org/1999/xlink" x="0px"
	 y="0px" viewBox="0 0 28 25" style="enable-background:new 0 0 28 25;" xml:space="preserve">
<style type="text/css">
	.st0{enable-background:new    ;}
	.st1{fill:#D7D7D7;}
</style>
<title>heart - anticon</title>
<desc>Created with Sketch.</desc>
<g id="Symbols">
	<g id="item" transform="translate(-188.000000, -16.000000)">
		<g id="item-copy">
			<g class="st0">
				<path class="st1" d="M216,24.6c0,1.3-0.3,2.5-0.8,3.6c-0.5,1.1-1.3,2.1-2.2,2.9c-0.7,0.6-2.5,2.3-5.4,4.9
					c-2.7,2.5-4.3,4-4.9,4.5c-0.2,0.2-0.4,0.2-0.7,0.2c-0.3,0-0.5-0.1-0.7-0.2c-0.9-0.8-3.2-2.9-7-6.4c-1.8-1.6-2.8-2.6-3.1-2.8
					c-0.1-0.1-0.2-0.1-0.2-0.2c-0.9-0.8-1.6-1.7-2.2-2.9c-0.5-1.1-0.8-2.3-0.8-3.6c0-1.1,0.2-2.3,0.7-3.3c0.4-1,1-1.9,1.8-2.7
					c1.5-1.6,3.4-2.4,5.5-2.4c1.2,0,2.3,0.3,3.3,0.8c1,0.5,2,1.2,2.7,2.2c0.8-0.9,1.7-1.6,2.7-2.2c1-0.5,2.2-0.8,3.3-0.8
					c2.1,0,4,0.8,5.5,2.3c0.8,0.8,1.4,1.7,1.8,2.7C215.8,22.3,216,23.5,216,24.6z"/>
			</g>
		</g>
	</g>
</g>
</svg>
