<?xml version="1.0" encoding="utf-8"?>
<!-- Generator: Adobe Illustrator 22.1.0, SVG Export Plug-In . SVG Version: 6.00 Build 0)  -->
<svg version="1.1" id="レイヤー_1" xmlns="http://www.w3.org/2000/svg" xmlns:xlink="http://www.w3.org/1999/xlink" x="0px"
	 y="0px" viewBox="0 0 28 25" style="enable-background:new 0 0 28 25;" xml:space="preserve">
<style type="text/css">
	.st0{enable-background:new    ;}
	.st1{fill:#FFF9F0;}
</style>
<title>heart-o - anticon</title>
<desc>Created with Sketch.</desc>
<g id="Symbols">
	<g id="Gnav" transform="translate(-109.000000, -33.000000)">
		<g id="Nav1">
			<g>
				<g id="Group-5" transform="translate(109.000000, 31.000000)">
					<g class="st0">
						<path class="st1" d="M28,10.6c0,1.3-0.3,2.5-0.8,3.6c-0.5,1.1-1.3,2.1-2.2,2.9c-0.7,0.6-2.5,2.3-5.4,4.9
							c-2.7,2.5-4.3,4-4.9,4.5c-0.2,0.2-0.4,0.2-0.7,0.2c-0.3,0-0.5-0.1-0.7-0.2c-0.9-0.8-3.2-2.9-7-6.4c-1.8-1.6-2.8-2.6-3.1-2.8
							C3.1,17.2,3,17.1,3,17.1c-0.9-0.8-1.6-1.7-2.2-2.9C0.3,13.1,0,11.9,0,10.6c0-1.1,0.2-2.3,0.7-3.3c0.4-1,1-1.9,1.8-2.7
							C4,3,5.8,2.3,8,2.3c1.2,0,2.3,0.3,3.3,0.8c1,0.5,2,1.2,2.7,2.2c0.8-0.9,1.7-1.6,2.7-2.2c1-0.5,2.2-0.8,3.3-0.8
							c2.1,0,4,0.8,5.5,2.3c0.8,0.8,1.4,1.7,1.8,2.7C27.8,8.3,28,9.5,28,10.6z M14,7.4c-0.6,0-1.1-0.3-1.5-0.8
							c-0.5-0.7-1.2-1.3-2-1.7C9.7,4.6,8.8,4.4,8,4.4c-1.5,0-2.9,0.6-4,1.7c-0.6,0.6-1,1.3-1.3,2c-0.3,0.8-0.5,1.7-0.5,2.5
							c0,0.9,0.2,1.8,0.6,2.7s0.9,1.6,1.6,2.1c0,0.1,0.1,0.1,0.2,0.2c0,0,0,0,0.1,0.1c0.3,0.3,1.2,1.1,2.6,2.3l1.3,1.2
							c2.6,2.4,4.5,4.1,5.5,5c0.8-0.8,2.2-2,4.2-3.8c2.5-2.3,4.3-3.9,5.4-4.9l0.1-0.1c0.7-0.6,1.2-1.3,1.6-2.1
							c0.4-0.9,0.6-1.8,0.6-2.8c0-0.9-0.2-1.7-0.5-2.5c-0.3-0.8-0.8-1.4-1.3-2c-1.1-1.1-2.5-1.7-4-1.7c-0.9,0-1.7,0.2-2.5,0.6
							c-0.8,0.4-1.5,1-2,1.7C15.1,7.1,14.6,7.4,14,7.4z"/>
					</g>
				</g>
			</g>
		</g>
	</g>
</g>
</svg>
