<?xml version="1.0" encoding="utf-8"?>
<!-- Generator: Adobe Illustrator 22.1.0, SVG Export Plug-In . SVG Version: 6.00 Build 0)  -->
<svg version="1.1" id="レイヤー_1" xmlns="http://www.w3.org/2000/svg" xmlns:xlink="http://www.w3.org/1999/xlink" x="0px"
	 y="0px" viewBox="0 0 26.2 26.2" style="enable-background:new 0 0 26.2 26.2;" xml:space="preserve">
<style type="text/css">
	.st0{enable-background:new    ;}
	.st1{fill:#C28E44;}
</style>
<title></title>
<desc>Created with Sketch.</desc>
<g id="Symbols">
	<g id="Footer" transform="translate(-766.000000, -302.000000)">
		<g id="Group-2" transform="translate(0.000000, 301.000000)">
			<g transform="translate(648.000000, 0.000000)">
				<g id="_xF16D_">
					<g class="st0">
						<path class="st1" d="M144.2,8.7c0,1.1,0.1,2.9,0.1,5.4s0,4.4-0.1,5.5s-0.2,2.1-0.5,2.9c-0.4,1-0.9,1.8-1.6,2.5
							s-1.6,1.3-2.5,1.6c-0.8,0.3-1.8,0.4-2.9,0.5s-2.9,0.1-5.5,0.1s-4.4,0-5.5-0.1s-2.1-0.2-2.9-0.6c-1-0.3-1.8-0.8-2.5-1.6
							s-1.3-1.6-1.6-2.5c-0.3-0.8-0.4-1.8-0.5-2.9s-0.1-2.9-0.1-5.5s0-4.4,0.1-5.5s0.2-2.1,0.5-2.9c0.4-1,0.9-1.8,1.6-2.5
							s1.6-1.3,2.5-1.6c0.8-0.3,1.8-0.4,2.9-0.5s2.9-0.1,5.5-0.1s4.4,0,5.5,0.1s2.1,0.2,2.9,0.5c1,0.4,1.8,0.9,2.5,1.6
							s1.3,1.6,1.6,2.5C143.9,6.6,144.1,7.5,144.2,8.7z M141.4,21.9c0.2-0.7,0.4-1.7,0.5-3.2c0-0.9,0.1-2.1,0.1-3.6v-1.9
							c0-1.6,0-2.8-0.1-3.6c-0.1-1.5-0.2-2.5-0.5-3.2c-0.5-1.2-1.3-2.1-2.5-2.5c-0.6-0.2-1.7-0.4-3.2-0.5c-0.9,0-2.1-0.1-3.6-0.1
							h-1.9c-1.6,0-2.8,0-3.6,0.1c-1.4,0.1-2.5,0.2-3.2,0.5c-1.2,0.5-2.1,1.3-2.5,2.5c-0.2,0.6-0.4,1.7-0.5,3.2
							c0,0.9-0.1,2.1-0.1,3.6v1.9c0,1.6,0,2.8,0.1,3.6c0.1,1.4,0.2,2.5,0.5,3.2c0.5,1.2,1.3,2.1,2.5,2.5c0.7,0.2,1.7,0.4,3.2,0.5
							c0.9,0,2.1,0.1,3.6,0.1h1.9c1.6,0,2.8,0,3.6-0.1c1.5-0.1,2.5-0.2,3.2-0.5C140.1,23.9,140.9,23,141.4,21.9z M131.1,7.4
							c1.2,0,2.3,0.3,3.4,0.9s1.9,1.4,2.5,2.5s0.9,2.2,0.9,3.4s-0.3,2.3-0.9,3.4s-1.4,1.9-2.5,2.5s-2.2,0.9-3.4,0.9
							s-2.3-0.3-3.4-0.9s-1.9-1.4-2.5-2.5s-0.9-2.2-0.9-3.4s0.3-2.3,0.9-3.4s1.4-1.9,2.5-2.5S129.9,7.4,131.1,7.4z M131.1,18.5
							c1.2,0,2.2-0.4,3.1-1.3s1.3-1.9,1.3-3.1s-0.4-2.2-1.3-3.1s-1.9-1.3-3.1-1.3s-2.2,0.4-3.1,1.3s-1.3,1.9-1.3,3.1
							s0.4,2.2,1.3,3.1S129.9,18.5,131.1,18.5z M139.7,7.1c0-0.4-0.2-0.8-0.5-1.1s-0.7-0.5-1.1-0.5S137.4,5.7,137,6
							s-0.5,0.7-0.5,1.1s0.2,0.8,0.5,1.1s0.7,0.5,1.1,0.5s0.8-0.2,1.1-0.5S139.7,7.5,139.7,7.1z"/>
					</g>
				</g>
			</g>
		</g>
	</g>
</g>
</svg>
