<?xml version="1.0" encoding="utf-8"?>
<!-- Generator: Adobe Illustrator 22.1.0, SVG Export Plug-In . SVG Version: 6.00 Build 0)  -->
<svg version="1.1" id="レイヤー_1" xmlns="http://www.w3.org/2000/svg" xmlns:xlink="http://www.w3.org/1999/xlink" x="0px"
	 y="0px" viewBox="0 0 148.5 41.9" style="enable-background:new 0 0 148.5 41.9;" xml:space="preserve">
<style type="text/css">
	.st0{enable-background:new    ;}
	.st1{fill:#FFF9F0;}
</style>
<title>Petit Caprice</title>
<desc>Created with Sketch.</desc>
<g id="Symbols">
	<g id="Gnav" transform="translate(-580.000000, -30.000000)">
		<g id="Nav1">
			<g>
				<g id="Group" transform="translate(577.000000, 36.000000)">
					<g class="st0">
						<path class="st1" d="M15.2,15.7C7.8,24.8-0.7,16,4.7,6.8C8.6,0.2,18.2-6,26.8-6c4,0,8,1.2,8,4.8c0,4.9-6.6,10.2-13.2,10.2
							C21,9.1,20.5,9,20,9C18.5,11.3,17,13.6,15.2,15.7z M28.1-2.9c-2.2,1.8-4.6,6.2-7.5,10.9c0.4,0,0.7,0,1.2,0
							c4.7-0.1,11.4-5.2,11.5-8.7c0-2-0.7-4.1-5.9-4.1c-8,0-17.6,5.5-21.2,12.1c-5.4,9.9,3.2,14.5,8.2,7.3c1.4-2,2.8-4,4-6
							c-2.6-0.8-2.7-2.6-2.2-2.4c0.4,0.2,1.3,1,2.9,1.5c1.5-2.3,2.7-4.4,3.8-6c3.1-4.7,4.6-5.2,5-5.3C28.4-3.8,28.2-3,28.1-2.9z"/>
						<path class="st1" d="M35.6,14.2c0.5-0.4,0.4,0.9,0.2,1.1c-0.2,0.2-3.6,3.6-6.4,4c-2.2,0.3-3.7-0.5-4.3-2.1
							c-0.7-1.8,0.3-4.2,2.3-6.1c4.9-4.4,8.2-2.6,4.6,1.6c-0.8,0.9-4.4,3.7-5.7,4.3c0.3,1.4,1.8,1.9,5.3,0.2
							C32.9,16.5,34.2,15.4,35.6,14.2z M30.4,12.5c3.1-3,1.6-3.7-1.5-1c-1.1,1.1-2.1,2.6-2.4,3.8C27.4,14.9,29.3,13.7,30.4,12.5z"/>
						<path class="st1" d="M45.8,5.4c-3,3.3-6.9,7-8.9,8.8c-0.1,0.6-0.2,1.2-0.2,1.7c0,1.4,0.5,1.8,1.3,1.8c1,0,2.4-0.5,5.7-3.4
							c0.5-0.4,0.4,0.7,0.2,0.9c-0.2,0.2-3.8,3.9-5.9,3.8c-4.7-0.1-2.4-7.3-0.1-10.8c0.5-0.8,1.2-1.7,2-2.7
							c-2.4,0.2-4.1,0.3-4.1,0.3c-0.8,0.1,0-1.1,0.4-1.1c0.2,0,2.1-0.1,4.6-0.3C47.2-3.1,52.3-2.4,47,4c3.5-0.2,6.5-0.3,6.9-0.2
							c0.3,0.1,0.3,1.2,0,1.2c-1.7,0-4.7,0-7.8,0.2L45.8,5.4z M44.4,5.3c-1,0-1.9,0.1-2.8,0.2c-1.2,1.5-3.1,4.1-4.1,6.9
							C40.7,9.3,42.9,7,44.4,5.3z M45.5,4.1c2.3-2.7,2.4-3.5,2-3.5c-0.6,0-2.7,1.5-4.8,3.7L45.5,4.1z"/>
						<path class="st1" d="M45.2,17.7c1.1,0.1,2.6-0.7,5.9-3.6c0.5-0.4,0.4,0.9,0.2,1.1c-0.2,0.2-4.8,5-7.5,3.1
							c-1.4-1-0.8-3.3,1-5.9c1.5-2.2,2.3-3.3,2.6-3.5c0.4-0.3,1.1,0.6,0.7,1.2c-0.3,0.5-2.8,3.7-3.4,5.2
							C44.1,16.8,44.3,17.6,45.2,17.7z M50.3,5.6c-0.7-0.4-1.5,0-1.9,0.7c-0.3,0.6-0.3,1.5,0.4,1.7C50.2,8.5,51.5,6.1,50.3,5.6z"/>
						<path class="st1" d="M61.4,5.4c-3,3.3-6.9,7-8.9,8.8c-0.1,0.6-0.2,1.2-0.2,1.7c0,1.4,0.5,1.8,1.3,1.8c1,0,2.4-0.5,5.7-3.4
							c0.5-0.4,0.4,0.7,0.2,0.9c-0.2,0.2-3.8,3.9-5.9,3.8c-4.7-0.1-2.4-7.3-0.1-10.8c0.5-0.8,1.2-1.7,2-2.7
							c-2.4,0.2-4.1,0.3-4.1,0.3c-0.8,0.1,0-1.1,0.4-1.1c0.2,0,2.1-0.1,4.6-0.3c6.4-7.5,11.4-6.8,6.2-0.4c3.5-0.2,6.5-0.3,6.9-0.2
							c0.3,0.1,0.3,1.2,0,1.2c-1.7,0-4.7,0-7.8,0.2L61.4,5.4z M60,5.3c-1,0-1.9,0.1-2.8,0.2c-1.2,1.5-3.1,4.1-4.1,6.9
							C56.2,9.3,58.4,7,60,5.3z M61,4.1c2.3-2.7,2.4-3.5,2-3.5c-0.6,0-2.7,1.5-4.8,3.7L61,4.1z"/>
						<path class="st1" d="M82.4,2.1c0.8-0.9,2-1.5,2.7-1.6c0.5-0.1,0.6,1.2,0,1.4c-2.5,1-2.9,3.3-1.5,3.3c1.6,0,4.7-2.5,6.1-5
							c1.4-2.5,0.9-5-2.3-5C79.6-4.8,69.7,5.9,69.6,12c-0.1,2.3,0.5,5.7,4.2,6.5c3.2,0.6,7.1-1.6,9.1-3.6c0.7-0.7,1.8-0.4,1.1,0.3
							c-6.6,7.3-16,5.7-16-2.8c0-5.1,3.8-10.4,8.5-14C83.6-6.9,92-7.7,92-2.3c0,2-1.8,4.5-4,6.4C81.8,9.5,79.7,4.9,82.4,2.1z"/>
						<path class="st1" d="M95.8,19.3c-2.2,0.4-3.6-1.2-2.9-3.4c-3.3,3.4-4.5,3.7-5.9,3.5c-1.6-0.3-2.7-2.8-0.4-6.2
							c2.4-3.3,5.6-4.4,6.8-4.4c1.1,0,2,0.7,2.2,1.8c0.4-0.5,0.7-0.8,0.8-0.9c0.4-0.2,1.3,0.6,1.3,0.8c0,0.1-1.1,1.3-2.2,2.4
							c-2.8,4.3-1.5,5.9,2.6,3.9c1.2-0.6,2.5-1.5,3.9-2.7c0.5-0.4,0.4,0.9,0.2,1.1C101.9,15.5,98.6,18.8,95.8,19.3z M94.2,12.4
							L94.2,12.4c0,0,0.7-2.2-1.1-2.2c-4,0-8.1,7-5.9,7.6c2.2,0.6,6.2-4.5,6.5-4.8L94.2,12.4z"/>
						<path class="st1" d="M104.7,7.2c0.2-0.3,1.7-0.4,1.5,0.2c-0.4,1.3-0.9,2.6-1.3,3.8c1.3-1.2,2.5-1.8,3.5-1.8
							c2.3,0,2.9,3.4,0,7.2c-3,3.9-5,3.3-6,2.4c-2.3,8.8-5.6,17.6-8.1,17c-5.4-1.3,5.5-20,8.5-22.6C103.7,9.6,104.5,7.4,104.7,7.2z
							 M94.4,32.1c-1,8,3.6-3.7,4-4.9c1.1-3.2,2.3-6.9,3.1-9.5c0-0.2,0.1-0.4,0.2-0.6c-2.1,3-4,6.3-5.1,8.5
							C95.5,28.1,94.6,30.4,94.4,32.1z M102.8,17.2c0.7,2.2,3.2,0.7,4.8-1.7c1.9-2.9,1.8-4.7,0.5-4.7c-1.1,0-2.7,1.5-4.4,3.7
							C103.3,15.7,103,16.6,102.8,17.2z"/>
						<path class="st1" d="M117.1,12.4c0.9-1.1,1.3-1.8,1.1-2c-0.3-0.2-1.4,0.4-2.4,0.4c-1.1,1.5-2.7,3.2-4.2,4.7
							c-0.3,0.3-0.6-0.9-0.4-1c1.4-1.1,2.7-2.7,3.6-3.9c-0.6-0.3-1-0.9-0.7-1.9c0.7-2.8,4-2.5,3.3-0.5c-0.2,0.5-0.5,1.1-0.9,1.6
							c0.5-0.1,1.1-0.4,1.5-0.5c1.9-0.7,3.1,0.2,1.3,2.3c-1,1.2-4.3,5.7-1.9,6c0.9,0.1,2.4-0.7,5.7-3.6c0.5-0.4,0.4,0.9,0.2,1.1
							c-0.2,0.2-3.9,3.9-6,3.8C114.7,19,114.1,16,117.1,12.4z M116.1,8.7c0.4-1-0.9-0.7-1.1,0.4c-0.1,0.5,0,0.7,0.4,0.9
							C115.7,9.4,116,9,116.1,8.7z"/>
						<path class="st1" d="M124.5,17.7c1.1,0.1,2.6-0.7,5.9-3.6c0.5-0.4,0.4,0.9,0.2,1.1c-0.2,0.2-4.8,5-7.5,3.1
							c-1.4-1-0.8-3.3,1-5.9c1.5-2.2,2.3-3.3,2.6-3.5c0.4-0.3,1.1,0.6,0.7,1.2c-0.3,0.5-2.8,3.7-3.4,5.2
							C123.4,16.8,123.5,17.6,124.5,17.7z M129.6,5.6c-0.7-0.4-1.5,0-1.9,0.7c-0.3,0.6-0.3,1.5,0.4,1.7
							C129.4,8.5,130.8,6.1,129.6,5.6z"/>
						<path class="st1" d="M133.1,10.3c3.6-2.9,7-2.2,6.6-0.1c-0.3,1.1-1.5,2.1-1.8,2.3c-0.2,0.2-1.1-0.6-0.4-1.1
							c1.1-1,0.7-2.2-0.5-1.9c-0.9,0.2-3.3,1.8-4.5,3.6c-3.2,4.7,1.7,7.3,8.7,1.1c0.5-0.4,0.4,0.9,0.3,1.1c-0.2,0.2-3.3,3.4-6,3.7
							c-2.3,0.4-4.2-0.1-5.1-1.6C129.7,16.2,129.1,13.5,133.1,10.3z"/>
						<path class="st1" d="M151.1,14.2c0.5-0.4,0.4,0.9,0.2,1.1c-0.2,0.2-3.6,3.6-6.4,4c-2.2,0.3-3.7-0.5-4.3-2.1
							c-0.7-1.8,0.3-4.2,2.3-6.1c4.9-4.4,8.2-2.6,4.6,1.6c-0.8,0.9-4.4,3.7-5.7,4.3c0.3,1.4,1.8,1.9,5.3,0.2
							C148.4,16.5,149.7,15.4,151.1,14.2z M145.9,12.5c3.1-3,1.6-3.7-1.5-1c-1.1,1.1-2.1,2.6-2.4,3.8
							C142.9,14.9,144.8,13.7,145.9,12.5z"/>
					</g>
				</g>
			</g>
		</g>
	</g>
</g>
</svg>
