<?xml version="1.0" encoding="utf-8"?>
<!-- Generator: Adobe Illustrator 22.1.0, SVG Export Plug-In . SVG Version: 6.00 Build 0)  -->
<svg version="1.1" id="レイヤー_1" xmlns="http://www.w3.org/2000/svg" xmlns:xlink="http://www.w3.org/1999/xlink" x="0px"
	 y="0px" viewBox="0 0 14 14" style="enable-background:new 0 0 14 14;" xml:space="preserve">
<style type="text/css">
	.st0{enable-background:new    ;}
	.st1{fill:#D7D7D7;}
</style>
<title></title>
<desc>Created with Sketch.</desc>
<g id="Symbols">
	<g id="Gnav" transform="translate(-1375.000000, -39.000000)">
		<g id="Nav1">
			<g>
				<g class="st0">
					<path class="st1" d="M1389,52.4c0,0.2-0.1,0.3-0.2,0.4c-0.1,0.1-0.2,0.2-0.4,0.2s-0.3-0.1-0.4-0.2l-3.2-3.2
						c-1.1,0.9-2.4,1.4-3.8,1.4c-1.7,0-3.1-0.6-4.2-1.8s-1.8-2.6-1.8-4.2s0.6-3.1,1.8-4.2s2.6-1.8,4.2-1.8s3.1,0.6,4.2,1.8
						s1.8,2.6,1.8,4.2c0,1.4-0.5,2.7-1.4,3.8l3.2,3.2C1388.9,52.1,1389,52.3,1389,52.4z M1384.4,48.4c0.5-0.5,0.8-1,1.1-1.6
						c0.2-0.6,0.4-1.2,0.4-1.9c0-0.7-0.1-1.3-0.4-1.9c-0.2-0.6-0.6-1.1-1.1-1.6s-1-0.8-1.6-1.1c-0.6-0.2-1.2-0.4-1.9-0.4
						c-0.7,0-1.3,0.1-1.9,0.4c-0.6,0.2-1.1,0.6-1.6,1.1s-0.8,1-1,1.6c-0.3,0.6-0.4,1.2-0.4,1.9c0,0.7,0.1,1.3,0.4,1.9
						c0.2,0.6,0.6,1.1,1,1.6s1,0.8,1.6,1.1c0.6,0.2,1.2,0.4,1.9,0.4c0.7,0,1.3-0.1,1.9-0.4C1383.5,49.2,1384,48.9,1384.4,48.4z"/>
				</g>
			</g>
		</g>
	</g>
</g>
</svg>
