<?xml version="1.0" encoding="utf-8"?>
<!-- Generator: Adobe Illustrator 22.1.0, SVG Export Plug-In . SVG Version: 6.00 Build 0)  -->
<svg version="1.1" id="レイヤー_1" xmlns="http://www.w3.org/2000/svg" xmlns:xlink="http://www.w3.org/1999/xlink" x="0px"
	 y="0px" viewBox="0 0 28 25" style="enable-background:new 0 0 28 25;" xml:space="preserve">
<style type="text/css">
	.st0{enable-background:new    ;}
	.st1{fill:#FFF9F0;}
</style>
<title>shopping-cart - anticon</title>
<desc>Created with Sketch.</desc>
<g id="Symbols">
	<g id="Gnav" transform="translate(-177.000000, -34.000000)">
		<g id="Nav1">
			<g>
				<g id="Group-4" transform="translate(176.000000, 31.000000)">
					<g class="st0">
						<path class="st1" d="M27.8,20.6c0.2,0.2,0.3,0.4,0.3,0.7s-0.1,0.5-0.3,0.7s-0.4,0.3-0.7,0.3h-3.3c0.4,0.5,0.6,1.2,0.6,1.8
							c0,0.8-0.3,1.6-0.9,2.1s-1.3,0.9-2.1,0.9c-0.8,0-1.5-0.3-2.1-0.9s-0.9-1.3-0.9-2.1c0-0.7,0.2-1.3,0.6-1.8h-4.7
							c0.4,0.5,0.6,1.2,0.6,1.8c0,0.8-0.3,1.6-0.9,2.1s-1.3,0.9-2.1,0.9c-0.8,0-1.5-0.3-2.1-0.9S8.8,25,8.8,24.2
							c0-0.7,0.2-1.3,0.6-1.8H7.6c-0.4,0-0.7-0.2-0.9-0.6c-0.2-0.4-0.2-0.7,0.1-1.1l2.2-3.6L7.2,8.9L6.5,5.6H2.8
							c-0.3,0-0.5-0.1-0.7-0.3S1.8,4.9,1.8,4.6s0.1-0.5,0.3-0.7s0.4-0.3,0.7-0.3h4.5c0.2,0,0.4,0.1,0.6,0.2c0.2,0.2,0.3,0.4,0.4,0.6
							l0.1,0.7L27,5.2c0.3,0,0.6,0.1,0.8,0.4s0.3,0.5,0.2,0.8l-2,11.3c0,0.2-0.2,0.4-0.3,0.6c-0.2,0.2-0.4,0.2-0.7,0.2l-14.6,0
							l-0.9,1.8H27C27.3,20.3,27.6,20.4,27.8,20.6z M10.9,16.5l13.2,0l1.7-9.3L9,7.2L10.9,16.5z M12.7,24.2c0-0.3-0.1-0.5-0.3-0.7
							s-0.4-0.3-0.6-0.3c-0.3,0-0.5,0.1-0.7,0.3c-0.2,0.2-0.3,0.4-0.3,0.7s0.1,0.5,0.3,0.7c0.2,0.2,0.4,0.3,0.7,0.3
							c0.3,0,0.5-0.1,0.6-0.3S12.7,24.4,12.7,24.2z M22.2,24.2c0-0.3-0.1-0.5-0.3-0.7s-0.4-0.3-0.6-0.3s-0.5,0.1-0.7,0.3
							c-0.2,0.2-0.3,0.4-0.3,0.7s0.1,0.5,0.3,0.7c0.2,0.2,0.4,0.3,0.7,0.3s0.5-0.1,0.6-0.3S22.2,24.4,22.2,24.2z"/>
					</g>
				</g>
			</g>
		</g>
	</g>
</g>
</svg>
