<?xml version="1.0" encoding="utf-8"?>
<!-- Generator: Adobe Illustrator 22.1.0, SVG Export Plug-In . SVG Version: 6.00 Build 0)  -->
<svg version="1.1" id="レイヤー_1" xmlns="http://www.w3.org/2000/svg" xmlns:xlink="http://www.w3.org/1999/xlink" x="0px"
	 y="0px" viewBox="0 0 30 24.4" style="enable-background:new 0 0 30 24.4;" xml:space="preserve">
<style type="text/css">
	.st0{enable-background:new    ;}
	.st1{fill:#C28E44;}
</style>
<title></title>
<desc>Created with Sketch.</desc>
<g id="Symbols">
	<g id="Footer" transform="translate(-708.000000, -304.000000)">
		<g id="Group-2" transform="translate(0.000000, 301.000000)">
			<g transform="translate(648.000000, 0.000000)">
				<g id="_xF099_">
					<g class="st0">
						<path class="st1" d="M87,9.9c0,2.8-0.7,5.5-2.1,8.1c-1.4,2.8-3.4,5-5.9,6.6c-2.8,1.8-6,2.8-9.6,2.8c-3.4,0-6.6-0.9-9.4-2.8
							c0.4,0,0.9,0.1,1.5,0.1c2.9,0,5.4-0.9,7.7-2.6c-1.4,0-2.6-0.4-3.6-1.2s-1.7-1.8-2.1-3c0.4,0,0.8,0.1,1.1,0.1
							c0.5,0,1.1-0.1,1.6-0.2c-1.4-0.3-2.6-1-3.5-2.2s-1.4-2.4-1.4-3.9v-0.1c0.9,0.5,1.8,0.8,2.8,0.8c-0.8-0.6-1.5-1.3-2-2.2
							s-0.8-1.9-0.8-3s0.3-2.1,0.9-3.1c1.5,1.9,3.4,3.4,5.6,4.6s4.6,1.8,7.1,1.9c-0.1-0.5-0.1-0.9-0.1-1.4c0-1.1,0.3-2.1,0.8-3.1
							s1.3-1.7,2.2-2.3s2-0.8,3-0.8c0.9,0,1.7,0.2,2.5,0.5s1.4,0.8,2,1.4c1.4-0.3,2.7-0.8,3.9-1.5c-0.5,1.4-1.4,2.6-2.7,3.4
							c1.2-0.2,2.3-0.5,3.5-1c-0.9,1.2-1.9,2.3-3.1,3.2C86.9,9.2,87,9.5,87,9.9z"/>
					</g>
				</g>
			</g>
		</g>
	</g>
</g>
</svg>
