<?xml version="1.0" encoding="utf-8"?>
<!-- Generator: Adobe Illustrator 22.1.0, SVG Export Plug-In . SVG Version: 6.00 Build 0)  -->
<svg version="1.1" id="レイヤー_1" xmlns="http://www.w3.org/2000/svg" xmlns:xlink="http://www.w3.org/1999/xlink" x="0px"
	 y="0px" viewBox="0 0 20 25" style="enable-background:new 0 0 20 25;" xml:space="preserve">
<style type="text/css">
	.st0{enable-background:new    ;}
	.st1{fill:#FFF9F0;}
</style>
<title>user - anticon</title>
<desc>Created with Sketch.</desc>
<g id="Symbols">
	<g id="Gnav" transform="translate(-43.000000, -33.000000)">
		<g id="Nav1">
			<g>
				<g class="st0">
					<path class="st1" d="M62.1,56.7c0,0.3-0.1,0.5-0.3,0.7s-0.4,0.3-0.7,0.3s-0.5-0.1-0.7-0.3s-0.3-0.4-0.3-0.7
						c0-2-0.7-3.7-2.1-5.1S55,49.6,53,49.6c-2,0-3.7,0.7-5.1,2.1c-1.4,1.4-2.1,3.1-2.1,5.1c0,0.3-0.1,0.5-0.3,0.7s-0.4,0.3-0.7,0.3
						s-0.5-0.1-0.7-0.3s-0.3-0.4-0.3-0.7c0-1.2,0.2-2.4,0.7-3.6c0.5-1.1,1.1-2.1,1.9-2.9c0.8-0.8,1.8-1.5,2.9-1.9
						c0.3-0.2,0.7-0.3,1.1-0.4c-1.1-0.4-2.1-1-2.9-1.8c-1.5-1.5-2.2-3.3-2.2-5.3s0.7-3.9,2.2-5.3c1.5-1.5,3.2-2.2,5.3-2.2
						s3.9,0.7,5.3,2.2c1.5,1.5,2.2,3.2,2.2,5.3s-0.7,3.9-2.2,5.3c-0.8,0.8-1.8,1.4-2.9,1.8c0.4,0.1,0.8,0.2,1.1,0.4
						c1.1,0.5,2.1,1.1,2.9,1.9c0.8,0.8,1.5,1.8,1.9,2.9C61.9,54.3,62.1,55.5,62.1,56.7z M53,46.4c1.5,0,2.8-0.5,3.9-1.6
						c1.1-1.1,1.6-2.4,1.6-3.9S58,38,56.9,36.9c-1.1-1.1-2.4-1.6-3.9-1.6s-2.8,0.5-3.9,1.6c-1.1,1.1-1.6,2.4-1.6,3.9
						s0.5,2.8,1.6,3.9C50.2,45.8,51.5,46.4,53,46.4z"/>
				</g>
			</g>
		</g>
	</g>
</g>
</svg>
